<?xml version="1.0" encoding="iso-8859-1"?>

<svg version="1.1" id="Layer_1" xmlns="http://www.w3.org/2000/svg" xlink="http://www.w3.org/1999/xlink" x="0px" y="0px"
	 viewBox="0 0 512 512" space="preserve">

			<path d="M0,0v512h512V0H0z M469.333,469.333H42.667V42.667h426.667V469.333z"/>
			<path d="M106.667,234.667c11.782,0,21.333-9.551,21.333-21.333V158.17l70.248,70.248c8.331,8.331,21.839,8.331,30.17,0
				s8.331-21.839,0-30.17L158.17,128h55.163c11.782,0,21.333-9.551,21.333-21.333c0-11.782-9.551-21.333-21.333-21.333H106.667
				c-0.703,0-1.405,0.037-2.105,0.106c-0.318,0.031-0.627,0.091-0.94,0.136c-0.375,0.054-0.75,0.098-1.122,0.171
				c-0.359,0.071-0.708,0.17-1.061,0.259c-0.322,0.081-0.645,0.151-0.964,0.248c-0.346,0.105-0.68,0.234-1.018,0.356
				c-0.318,0.114-0.639,0.219-0.953,0.349c-0.316,0.131-0.618,0.284-0.926,0.43c-0.323,0.152-0.649,0.296-0.966,0.465
				c-0.295,0.158-0.575,0.338-0.861,0.509c-0.311,0.186-0.626,0.361-0.929,0.564c-0.316,0.211-0.613,0.447-0.917,0.674
				c-0.253,0.19-0.513,0.365-0.759,0.568c-1.087,0.892-2.085,1.889-2.977,2.977c-0.202,0.246-0.378,0.506-0.568,0.759
				c-0.228,0.304-0.463,0.601-0.674,0.917c-0.203,0.303-0.379,0.618-0.564,0.929c-0.171,0.286-0.351,0.566-0.509,0.861
				c-0.169,0.317-0.313,0.643-0.465,0.966c-0.145,0.308-0.299,0.611-0.43,0.926c-0.13,0.314-0.235,0.635-0.349,0.953
				c-0.122,0.338-0.251,0.672-0.356,1.018c-0.096,0.318-0.167,0.642-0.248,0.964c-0.089,0.353-0.188,0.701-0.259,1.061
				c-0.074,0.372-0.118,0.748-0.171,1.122c-0.045,0.314-0.104,0.622-0.136,0.94c-0.068,0.693-0.105,1.388-0.105,2.084
				c0,0.007-0.001,0.014-0.001,0.021v106.667C85.333,225.115,94.885,234.667,106.667,234.667z"/>
			<path d="M277.333,405.333c0,11.782,9.551,21.333,21.333,21.333h106.667c0.703,0,1.405-0.037,2.105-0.106
				c0.316-0.031,0.622-0.09,0.933-0.135c0.377-0.054,0.755-0.098,1.13-0.172c0.358-0.071,0.705-0.169,1.056-0.258
				c0.323-0.081,0.648-0.152,0.968-0.249c0.345-0.104,0.677-0.234,1.014-0.355c0.32-0.115,0.642-0.22,0.957-0.35
				c0.314-0.13,0.615-0.283,0.921-0.428c0.325-0.153,0.653-0.297,0.971-0.468c0.293-0.157,0.572-0.336,0.857-0.506
				c0.312-0.186,0.628-0.363,0.932-0.566c0.315-0.211,0.611-0.445,0.913-0.671c0.255-0.191,0.516-0.368,0.764-0.571
				c0.535-0.439,1.05-0.903,1.54-1.392c0.008-0.007,0.016-0.014,0.023-0.021s0.014-0.016,0.021-0.023
				c0.488-0.49,0.952-1.004,1.392-1.54c0.204-0.248,0.38-0.509,0.571-0.764c0.226-0.302,0.461-0.598,0.671-0.913
				c0.204-0.304,0.38-0.62,0.566-0.932c0.17-0.285,0.349-0.564,0.506-0.857c0.17-0.318,0.315-0.646,0.468-0.971
				c0.145-0.306,0.297-0.607,0.428-0.921c0.13-0.315,0.236-0.637,0.35-0.957c0.121-0.337,0.25-0.669,0.355-1.014
				c0.097-0.32,0.168-0.645,0.249-0.968c0.089-0.351,0.187-0.698,0.258-1.056c0.074-0.375,0.118-0.753,0.172-1.13
				c0.044-0.311,0.104-0.618,0.135-0.933c0.069-0.701,0.106-1.403,0.106-2.107V298.667c0-11.782-9.551-21.333-21.333-21.333
				c-11.782,0-21.333,9.551-21.333,21.333v55.163l-70.248-70.248c-8.331-8.331-21.839-8.331-30.17,0s-8.331,21.839,0,30.17
				L353.83,384h-55.163C286.885,384,277.333,393.551,277.333,405.333z"/>
</svg>
